<?xml version="1.0" encoding="UTF-8" standalone="no"?>
<svg
   width="630"
   height="500"
   version="1.1"
   viewBox="0 0 630 500"
   xml:space="preserve"
   id="svg3"
   sodipodi:docname="itchio.svg"
   inkscape:version="1.4 (e7c3feb1, 2024-10-09)"
   inkscape:export-filename="banner.png"
   inkscape:export-xdpi="96"
   inkscape:export-ydpi="96"
   xmlns:inkscape="http://www.inkscape.org/namespaces/inkscape"
   xmlns:sodipodi="http://sodipodi.sourceforge.net/DTD/sodipodi-0.dtd"
   xmlns="http://www.w3.org/2000/svg"
   xmlns:svg="http://www.w3.org/2000/svg"><defs
     id="defs3"><rect
       x="18.754251"
       y="866.44641"
       width="1916.6844"
       height="562.62756"
       id="rect1" /></defs><sodipodi:namedview
     id="namedview3"
     pagecolor="#ffffff"
     bordercolor="#000000"
     borderopacity="0.25"
     inkscape:showpageshadow="2"
     inkscape:pageopacity="0.0"
     inkscape:pagecheckerboard="0"
     inkscape:deskcolor="#d1d1d1"
     inkscape:zoom="0.63579438"
     inkscape:cx="380.6262"
     inkscape:cy="297.26592"
     inkscape:window-width="1392"
     inkscape:window-height="721"
     inkscape:window-x="0"
     inkscape:window-y="25"
     inkscape:window-maximized="0"
     inkscape:current-layer="svg3" /><text
     xml:space="preserve"
     id="text1"
     style="font-style:normal;font-variant:normal;font-weight:normal;font-stretch:normal;font-family:Jokerman;-inkscape-font-specification:Jokerman;text-align:start;writing-mode:lr-tb;direction:ltr;white-space:pre;shape-inside:url(#rect1);display:inline;fill:#000000" /><rect
     style="fill:#faffed;fill-opacity:1;stroke-width:0.315"
     id="rect2"
     width="630"
     height="500"
     x="0"
     y="0" /><g
     id="g2"
     transform="matrix(0.43340031,0,0,0.43340031,-118.40031,11.35151)"><g
       transform="matrix(7.6084034,0,0,7.6084034,355.16583,-248.00049)"
       stroke-width="0.97859"
       id="g3"><path
         d="M 124.73,130.43 64.302,95.953 c 0,0 2.3012,-22.368 18.215,-24.346 15.914,-1.9784 29.761,29.113 36.963,45.919 7.202,16.806 5.2496,12.904 5.2496,12.904 z"
         fill="#080278"
         id="path1" /><path
         d="m 7.6744,37.227 c -1.3857,9.4881 3.6569,23.862 10.106,31.75 l 11.779,4.1404 -9.639,-1.6819 c 2.1892,2.4045 4.6674,4.8468 7.348,7.4832 l 6.8046,1.7243 -4.4791,0.59025 c 10.725,10.937 22.562,22.533 32.626,31.502 l 11.997,5.8893 -9.4868,-3.6867 c 2.82,2.4696 5.6271,4.8727 8.3566,7.1289 l 7.8937,1.8886 -6.7708,-0.97494 c 2.4296,1.989 4.7784,3.8384 7.0056,5.5212 l 5.8079,-0.3132 -5.9088,2.4552 c 2.6935,1.8779 6.5821,-0.42087 8.3936,-0.44891 0,0 -4.8654,3.4089 -4.0061,3.4578 2.3584,0.13351 4.2937,-1.1212 5.271,-1.3508 0.96962,0.78175 -0.86819,3.0714 -0.67995,3.7853 -0.79838,0.66951 0.68708,-0.50593 1.4863,-1.4024 0,0 1.8135,-0.23066 0.01981,1.987 -0.71446,0.72042 1.1185,-0.22785 1.4001,-1.016 0.75455,-2.1858 1.6857,-4.25 4.3842,-4.5529 1.9371,-0.21736 2.2995,-2.0755 1.5573,-2.0068 -0.90609,-0.15806 0.19136,-0.003 0.18675,0.0626 -0.05401,0.7681 -1.6678,1.0552 -2.2714,0.42036 0,0 0.0037,-0.81251 -0.1217,-1.2154 -0.11541,-0.37064 -0.42841,-1.3258 -0.5641,-1.0536 -1.7722,3.5543 0.61817,-2.594 -0.57236,-5.2804 l -2.6298,3.5405 -0.6073,-5.437 c -0.57233,-0.98718 -1.1804,-2.0062 -1.8085,-3.0421 l -1.2741,5.0416 0.80578,-5.7996 c -0.80732,-1.3188 -1.6502,-2.6725 -2.5344,-4.0568 l -1.0786,7.4629 0.33199,-8.6185 c -1.438,-2.2278 -2.9676,-4.5248 -4.5463,-6.8458 l 0.89188,10.414 -2.2927,-12.458 c -9.5388,-13.838 -20.819,-28.381 -28.445,-36.693 l -0.97062,5.1162 0.38387,-5.7417 c -1.3875,-1.4898 -2.9239,-3.0843 -4.1869,-4.3903 l -0.08461,6.2164 -0.70484,-7.0337 c -4.2356,-4.3537 -8.2608,-8.2823 -11.982,-11.412 l -0.40554,8.1602 -5.0705,-12.273 c -5.2331,-2.6635 -18.129,-9.314 -21.723,-6.943 z"
         color="#000000"
         fill="#3d9519"
         fill-rule="evenodd"
         stroke-width="0.7497"
         id="path2" /><path
         d="M 165.02,136.83 H 12.58 c 0,0 -18.212,-33.384 0,-47.345 18.212,-13.961 60.029,8.5365 84.685,22.772 24.656,14.235 67.751,24.574 67.751,24.574 z"
         fill="#f8b503"
         id="path3" /></g><path
       d="m 501.59922,926.73349 c 0,-8.80001 -4,-16.00002 -12.53335,-20.53336 -6.4,-3.46667 -14.66668,-5.33334 -25.06669,-5.33334 -12.00002,0 -22.6667,2.40001 -31.20004,8.80001 -9.86668,6.66668 -14.93335,16.00002 -14.93335,27.73337 0,9.33334 4,17.86669 11.73335,26.13337 l 22.40002,19.20003 c 7.73335,7.7333 11.73335,16 11.73335,24.80003 0,13.0667 -9.60001,22.1334 -23.20003,22.1334 -15.20002,0 -26.6667,-7.2 -34.93337,-22.1334 l -9.60002,8.8 c 4.26668,8.8 10.93335,15.7334 19.46669,20.2667 8.53335,4.5334 17.60003,6.9334 27.46671,6.9334 14.93335,0 27.73336,-4.2667 38.13337,-12.0001 11.46669,-8.8 16.53336,-20.5333 16.53336,-35.20003 0,-10.9333 -4.26667,-20 -13.60002,-27.73336 -0.8,-0.8 -9.33334,-5.86668 -25.60003,-16.26669 -9.33334,-5.60001 -13.86668,-11.46668 -13.86668,-17.60002 0,-6.40001 2.4,-11.46668 7.46667,-14.93335 4.53334,-3.46667 9.86668,-5.06667 16.26669,-5.06667 5.33334,0 9.86668,1.06666 13.33335,3.2 4.53334,2.4 7.20001,6.40001 7.20001,10.66668 0,5.60001 -2.66667,8.53334 -8.26668,8.53334 -4,0 -6.13334,-1.86667 -6.13334,-5.06667 0,-1.33333 0.8,-2.66667 2.13334,-4 l -3.73334,-2.66667 c -4.53334,2.13333 -6.93334,5.86667 -6.93334,9.86667 0,8.53335 5.6,12.80002 17.06668,12.80002 12.53335,0 18.66669,-6.66667 18.66669,-21.33336 z m 60.6734,-35.67379 c -0.26555,-6.12759 -0.96001,-9.83434 -2.37292,-11.64152 l 10.34495,-7.65508 -6.38159,-5.59563 -8.74645,7.5858 c -3.0114,-1.73792 -6.25459,-2.66505 -9.75264,-3.31421 l -1.14474,-14.097 -8.25893,0.3579 2.78943,15.09341 c -3.41725,1.21576 -6.01214,2.92971 -8.01648,5.95266 l -10.97994,-6.99786 -3.95095,7.37798 11.76766,6.69681 c -0.61453,4.29731 -0.46444,7.76073 1.55057,11.14333 l -9.5457,7.62044 6.16135,6.67284 8.17897,-8.36196 c 2.47858,1.76101 5.22357,3.51047 8.16569,3.64989 l 2.61625,11.09715 9.00045,-1.72462 -3.12598,-10.54123 c 3.42878,-0.94934 6.54496,-2.9528 8.80418,-6.25372 l 11.4435,5.37627 2.86219,-7.86463 z m -1.62683,36.37124 -24.51037,1.06218 -14.75208,127.69198 55.18206,4.5485 z m -2.78836,58.84263 c 0.27709,6.394 -2.79292,9.4632 -8.92051,9.7287 -6.39401,0.2771 -9.71801,-2.515 -9.9951,-8.909 -0.26554,-6.1275 2.80446,-9.19671 9.19847,-9.4738 6.12759,-0.26554 9.4516,2.5266 9.71714,8.6541 z m 1.53554,35.43353 c 0.27708,6.394 -5.08676,11.9648 -11.74719,12.2534 -6.394,0.2771 -11.95325,-4.8204 -12.23034,-11.2144 -0.28864,-6.6604 4.8088,-12.2196 11.2028,-12.4967 6.66042,-0.2886 12.48609,4.7972 12.77473,11.4577 z m 98.73995,-99.90696 7.20001,-50.66672 -48.00006,5.33334 1.33333,45.33338 h -29.8667 l 5.60001,20.2667 24.80003,-2.13334 0.8,12.26668 -19.46669,-0.26667 -3.73334,14.66669 23.4667,1.6 2.4,77.6001 19.20002,-3.4666 9.60001,-71.7335 25.0667,1.60001 5.33334,-18.40003 -28.00003,-0.8 1.86667,-15.73335 26.13336,-1.86667 1.86667,-13.60002 z m -8.26668,-20.80002 c 0,7.46667 -3.46667,10.93335 -10.66668,10.93335 -7.20001,0 -10.66668,-3.46668 -10.66668,-10.93335 0,-7.20001 3.46667,-10.66668 10.66668,-10.66668 7.20001,0 10.66668,3.46667 10.66668,10.66668 z m -4.8,32.00004 c 0,5.6 -2.66667,8.26667 -8.00001,8.26667 -5.60001,0 -8.53335,-2.66667 -8.53335,-8.26667 0,-5.60001 2.93334,-8.26668 8.53335,-8.26668 5.33334,0 8.00001,2.66667 8.00001,8.26668 z m 182.96841,67.54694 c -10.85405,16.1599 -21.63047,25.3972 -32.96401,28.434 -11.33355,3.0368 -21.6097,-0.2833 -31.15504,-10.149 -7.96288,-8.0811 -13.43746,-18.2093 -16.75035,-30.57313 l -0.34511,-1.288 55.71006,-25.97038 c -2.08409,-4.68698 -4.28773,-8.78978 -6.35333,-12.3774 l 12.85558,-8.69005 -5.06047,-8.58272 -13.37074,8.82809 c -3.90565,-5.30319 -8.63457,-9.55755 -13.39552,-11.87082 l 8.39778,-16.05388 -8.5421,-4.06085 -9.30856,15.74576 c -6.30643,-1.89915 -12.97149,-2.04578 -19.411,-0.32031 l -1.4593,-13.68876 -9.44793,-0.22918 1.06864,17.3824 c -3.27952,1.15482 -7.6399,3.42748 -12.30838,6.61091 l -12.52173,-13.7614 -9.88415,8.446 14.30629,12.17893 c -4.51195,4.79794 -8.55927,10.2996 -11.30018,16.55551 l -14.31488,-4.99872 -3.11309,11.04889 14.03881,3.96839 c -1.43453,7.01016 -1.56265,14.77459 0.21829,24.51209 l -16.48019,8.55703 6.83151,10.0407 12.75452,-7.0066 c 3.18838,8.8083 7.20005,16.5678 13.46091,23.4485 l -12.86912,11.7305 8.08241,7.4968 11.37416,-12.1581 c 7.15314,6.0894 15.43767,10.2194 24.85355,12.3896 l -3.93139,16.2375 12.98998,3.1451 3.14018,-17.1297 c 10.4277,0.7948 19.34197,0.063 27.32696,-2.0769 l 2.62767,13.9279 11.5406,-2.2641 -3.67646,-14.7511 c 8.22407,-3.308 15.1923,-8.2119 20.5275,-14.0586 l 12.70534,9.295 7.37735,-7.4983 -13.06892,-11.6823 c 1.76609,-2.6818 4.47497,-6.9966 7.49198,-12.2221 z m -96.85921,-24.56817 c 0.5878,-11.20046 9.21609,-21.24247 20.29205,-24.21027 8.50016,-2.27761 14.42946,0.27475 17.13472,7.27995 z m 120.95781,-142.17892 -1.6,13.33335 22.40003,1.6 -0.53334,21.33336 -18.93335,-2.13334 -2.40001,12.26668 21.33336,1.06667 -0.26666,22.6667 -18.40003,0.26666 -1.6,10.66668 19.46669,2.40001 v 21.33336 l -19.46669,-3.73334 -1.33333,13.06668 20.53336,1.33333 -0.26667,25.0667 h -17.86669 l -1.33334,9.60006 18.93336,0.8 -0.26667,22.66663 -17.33335,-0.2666 -1.06667,10.9333 18.40002,1.0667 -0.8,24 -16.00002,-2.4 -1.86667,12 41.06672,4 L 919.6,833.80001 Z m 194.22505,180.22109 c -17.4798,8.5678 -31.4311,11.1794 -42.7647,8.1425 -11.3335,-3.0368 -18.57284,-11.0502 -21.90651,-24.36683 -2.85551,-10.9799 -2.53256,-22.48843 0.78034,-34.85227 l 0.34511,-1.28796 61.23156,5.36403 c 0.5386,-5.10109 0.6815,-9.75605 0.6865,-13.89583 l 15.4783,-1.09801 -0.091,-9.9631 -15.9934,0.95999 c -0.7308,-6.54552 -2.6989,-12.59435 -5.6655,-16.9782 l 15.2997,-9.70417 -5.3673,-7.78785 -15.9343,8.98195 c -4.512,-4.79793 -10.2108,-8.25744 -16.6503,-9.98291 l 5.5806,-12.58444 -8.0675,-4.92244 -7.7658,15.58791 c -3.4175,-0.63965 -8.32999,-0.85166 -13.96478,-0.42897 l -3.96344,-18.17859 -12.78292,2.37238 6.30015,17.70041 c -6.30644,1.89917 -12.56234,4.64008 -18.064,8.6874 l -9.89769,-11.48646 -8.22047,8.01208 10.17377,10.45613 c -4.74741,5.35371 -8.74057,12.01381 -12.067,21.33724 l -18.55075,-0.82953 0.8959,12.11126 14.54902,0.3094 c -1.6429,9.22234 -2.04844,17.9481 -0.0667,27.03745 l -17.01022,3.7243 3.25113,10.5337 15.92938,-4.8422 c 3.15008,8.85023 8.25975,16.56913 15.32901,23.15653 l -11.52343,12.0964 9.6771,9.2187 11.28433,-13.2647 c 8.63326,5.9022 16.71932,9.7253 24.70434,11.8649 l -4.68834,13.3757 11.12642,3.8095 4.19159,-14.613 c 8.7763,1.2473 17.2629,0.4845 24.8067,-1.9114 l 6.3557,14.4024 10.1381,-2.805 -5.477,-16.6516 c 2.8704,-1.4395 7.3738,-3.8218 12.5994,-6.8387 z m -71.59845,-69.7063 c 6.10928,-9.40598 18.60259,-13.78848 29.67855,-10.82068 8.5002,2.27761 12.359,7.45268 11.1992,14.87199 z m 165.13225,-73.00366 -47.4088,-2.788 7.1819,59.33304 -19.4241,1.31436 -2.5305,14.92133 23.5192,-0.31011 10.3144,93.08324 18.8553,6.9863 2.1221,-100.21002 25.1139,-0.43998 3.8222,-18.77224 -27.9726,1.47546 z m -11.4585,91.1239 c 0.6061,7.44201 -2.5677,11.17867 -9.744,11.76311 -7.1762,0.58444 -10.9128,-2.58944 -11.5189,-10.03145 -0.5844,-7.17625 2.5894,-10.91287 9.7656,-11.4973 7.1763,-0.58444 10.9129,2.58939 11.4973,9.76564 z m -0.1932,32.12173 c 0.4545,5.58153 -1.9869,8.45593 -7.3026,8.88883 -5.5815,0.4546 -8.7216,-1.9652 -9.1762,-7.54683 -0.4545,-5.5815 2.2526,-8.4775 7.8342,-8.932 5.3157,-0.433 8.19,2.0085 8.6446,7.59 z m 171.2754,28.52703 c -15.5829,11.6672 -28.8058,16.8261 -40.5063,15.9486 -11.7005,-0.8776 -20.303,-7.4059 -26.0535,-19.8709 -4.8464,-10.2579 -6.6706,-21.62623 -5.7106,-34.39023 l 0.1,-1.3296 61.1616,-6.10942 c -0.4188,-5.11232 -1.1435,-9.71274 -1.908,-13.78132 l 15.0045,-3.95554 -1.9412,-9.77258 -15.5364,3.91567 c -1.9345,-6.29567 -4.9925,-11.87334 -8.7222,-15.62947 l 13.2296,-12.37857 -6.7211,-6.65466 -13.9875,11.78689 c -5.325,-3.87579 -11.5675,-6.21589 -18.2155,-6.7145 l 3.1446,-13.40237 -8.8419,-3.33731 -4.7334,16.75961 c -3.4768,0.007 -8.3432,0.71134 -13.8012,2.17389 l -7.2729,-17.12526 -12.1194,4.70677 9.4801,16.22113 c -5.8436,3.03814 -11.4811,6.89398 -16.1347,11.89327 l -11.8601,-9.44683 -6.5881,9.40028 11.9398,8.38314 c -3.6697,6.14276 -6.3555,13.42896 -7.8912,23.20817 l -18.3818,2.63262 3.1312,11.73379 14.3531,-2.4 c 0.1,9.367 1.3229,18.01613 4.9594,26.57883 l -16.0218,6.8208 5.1523,9.7459 14.7519,-7.7183 c 4.74,8.1106 11.1952,14.7453 19.3656,19.9041 l -9.0745,14.0273 11.2218,7.2597 8.6225,-15.1308 c 9.5798,4.1948 18.2355,6.4485 26.479,7.0668 l -2.1208,14.014 11.6406,1.6753 1.4028,-15.1375 c 8.8552,-0.4055 17.0521,-2.7323 24.0193,-6.4884 l 8.9216,12.9702 9.4402,-4.6403 -8.4763,-15.3436 c 2.553,-1.9479 6.5351,-5.1256 11.1089,-9.0612 z m -83.306,-55.18515 c 4.2546,-10.37753 15.7158,-17.00557 27.1504,-16.14796 8.7754,0.65816 13.5287,5.0259 13.768,12.5315 z m 240.7591,12.64842 c -10.8541,16.1599 -21.6305,25.39723 -32.9641,28.43403 -11.3335,3.0368 -21.6097,-0.2833 -31.155,-10.14903 -7.9629,-8.0811 -13.4376,-18.2092 -16.7503,-30.5731 l -0.3451,-1.288 55.71,-25.97038 c -2.0841,-4.68698 -4.2877,-8.78977 -6.3534,-12.37739 l 12.8556,-8.69005 -5.0605,-8.58272 -13.3707,8.82809 c -3.9056,-5.30319 -8.6346,-9.55755 -13.3955,-11.87082 l 8.3978,-16.05388 -8.5421,-4.06086 -9.3086,15.74577 c -6.3064,-1.89915 -12.9715,-2.04578 -19.411,-0.32031 l -1.4593,-13.68877 -9.4479,-0.22917 1.0686,17.3824 c -3.2794,1.15481 -7.6398,3.42746 -12.3084,6.61091 l -12.5216,-13.76142 -9.8842,8.44602 14.3063,12.17892 c -4.512,4.79795 -8.5592,10.29959 -11.3002,16.55551 l -14.3149,-4.9987 -3.113,11.04887 14.0387,3.9684 c -1.4345,7.01015 -1.5626,14.77458 0.2184,24.51208 l -16.4803,8.557 6.8315,10.0407 12.7546,-7.0066 c 3.1884,8.8083 7.2,16.5678 13.4609,23.44853 l -12.8692,11.7305 8.0825,7.4968 11.3742,-12.1581 c 7.1531,6.0894 15.4376,10.2194 24.8535,12.3896 l -3.9314,16.2375 12.99,3.1451 3.1402,-17.1297 c 10.4277,0.7948 19.3419,0.063 27.327,-2.0769 l 2.6276,13.9279 11.5405,-2.2641 -3.6764,-14.7511 c 8.2241,-3.3079 15.1923,-8.2118 20.5275,-14.0586 l 12.7054,9.295 7.3774,-7.4983 -13.0691,-11.68233 c 1.7661,-2.6817 4.4751,-6.9966 7.4921,-12.2221 z m -96.8592,-24.56814 c 0.5877,-11.20045 9.216,-21.24247 20.292,-24.21027 8.5002,-2.27761 14.4295,0.27474 17.1348,7.27994 z m 240.4246,-29.64545 -11.7334,6.40001 c -3.4667,-7.20001 -10.6667,-10.93335 -20.2667,-11.73335 l 1.8667,-11.73335 -9.6,-0.8 -0.2667,12.80001 c -6.6667,1.06667 -12.8,3.46668 -18.9333,7.46668 l -4.8001,-10.93335 -8.8,4.53334 5.6,12.80002 c -5.0666,4.26667 -10.1333,10.66668 -15.7333,18.40002 l -1.0667,-38.66671 -20.5333,4.26667 -20.2667,122.66683 44.8,6.6667 -2.1333,-71.73346 c 13.6,-22.6667 25.8667,-34.40004 36.5334,-34.40004 9.6,0 14.6667,3.73334 14.6667,10.93334 0,3.20001 -1.6,6.93335 -4.0001,10.40002 l 6.4001,9.06667 c 4.5333,-2.4 8.2666,-4.26667 10.6666,-7.2 l 10.1334,8.00001 6.9333,-6.93335 -11.2,-7.73334 c 1.8667,-3.46667 2.9333,-7.46667 2.9333,-11.73335 0,-1.86667 -0.2666,-5.06667 -0.2666,-6.4 l 12.5333,-4.80001 z m -89.8668,62.93339 c 0,5.3334 -2.6667,8.2667 -8.8,8.2667 -5.3334,0 -8,-2.9333 -8,-8.2667 0,-5.3333 2.6666,-8.2667 8,-8.2667 6.1333,0 8.8,2.9334 8.8,8.2667 z m -0.8,31.73343 c 0,7.2 -3.2,10.6667 -10.4,10.6667 -7.4667,0 -10.9334,-3.4667 -10.9334,-10.6667 0,-6.1334 4.8,-10.9334 10.9334,-10.9334 5.6,0 10.4,4.8 10.4,10.9334 z"
       id="text2"
       style="font-size:266.667px;font-family:Jokerman;-inkscape-font-specification:Jokerman"
       aria-label="siteleteer"
       sodipodi:nodetypes="scscsccssccsscsccscscsssccsssccccccccccccccccccccccccccccccsssssssssscccccccccccccccccccccsssssssssscscscccccccccccccccccccccccccccccccccccccccccccccsccccccccccccccccccccccccccccccccscscccccccccccccccccccccccccccccccccccccccccccccscccccccccccccccsssssssssscscscccccccccccccccccccccccccccccccccccccccccccccscccscscccccccccccccccccccccccccccccccccccccccccccccsccccccccccccccccccssccccccscccssssssssss" /></g></svg>
